<svg xmlns="http://www.w3.org/2000/svg" width="16" height="16" viewBox="-112 -112 224 224"><defs><mask id="inner-mask"><rect x="-128" y="-128" width="256" height="256" fill="white"/><path d="M86 0 C63 18,50 31,13 13 C31 50,18 63,0 86 C-18 63,-31 50,-13 13 C-50 31,-63 18,-86 0 C-63 -18,-50 -31,-13 -13 C-31 -50,-18 -63,-0 -86 C18 -63,31 -50,13 -13 C50 -31,63 -18,86 -0 Z" stroke-width="1px" fill="black"/></mask></defs><path d="M112 0 C99 5,78 40,40 40 C40 78,5 99,0 112 C-5 99,-40 78,-40 40 C-78 40,-99 5,-112 0 C-99 -5,-78 -40,-40 -40 C-40 -78,-5 -99,-0 -112 C5 -99,40 -78,40 -40 C78 -40,99 -5,112 -0 Z" transform="rotate(10)" fill="#8bc34a" mask="url(#inner-mask)"/><path d="M86 0 C63 18,50 31,13 13 C31 50,18 63,0 86 C-18 63,-31 50,-13 13 C-50 31,-63 18,-86 0 C-63 -18,-50 -31,-13 -13 C-31 -50,-18 -63,-0 -86 C18 -63,31 -50,13 -13 C50 -31,63 -18,86 -0 Z" transform="rotate(10)" fill="transparent"/></svg>
